<mxfile host="app.diagrams.net" modified="2023-05-17T04:46:51.799Z" agent="Mozilla/5.0 (Windows NT 10.0; Win64; x64) AppleWebKit/537.36 (KHTML, like Gecko) Chrome/115.0.0.0 Safari/537.36 Edg/115.0.0.0" version="21.3.0" etag="4SMh68kSYnGEhtdbwL3f" type="github">
  <diagram name="第 1 页" id="kKX6WMn8jAZtVJ51f9dp">
    <mxGraphModel>
      <root>
        <mxCell id="0" />
        <mxCell id="1" parent="0" />
      </root>
    </mxGraphModel>
  </diagram>
</mxfile>
